<svg xmlns="http://www.w3.org/2000/svg" xmlns:xlink="http://www.w3.org/1999/xlink" version="1.1" x="0px" y="0px" viewBox="0 0 32 40" style="enable-background:new 0 0 32 32;" xml:space="preserve"><style type="text/css">
	.st0{fill-rule:evenodd;clip-rule:evenodd;}
</style><g><g><path d="M29.9,12.6c-0.2-0.6-0.6-1-1.2-1.1l-7.6-1.5l-3.7-7.1C17.1,2.3,16.6,2,16,2c-0.6,0-1.1,0.3-1.4,0.8l-3.7,7.1l-7.6,1.5    c-0.6,0.1-1,0.5-1.2,1.1c-0.2,0.6,0,1.2,0.4,1.6l5.3,5.9l-1,8c-0.1,0.6,0.2,1.2,0.6,1.5C7.7,29.9,8,30,8.3,30    c0.2,0,0.4-0.1,0.7-0.2l7-3.4l7,3.4c0.2,0.1,0.4,0.2,0.7,0.2c0.3,0,0.6-0.1,0.9-0.3c0.5-0.4,0.7-0.9,0.6-1.5l-1-8l5.3-5.9    C30,13.8,30.1,13.2,29.9,12.6z"/></g></g></svg>
