<?xml version="1.0" encoding="utf-8"?>
<!-- Generator: Adobe Illustrator 24.3.0, SVG Export Plug-In . SVG Version: 6.00 Build 0)  -->
<svg version="1.1" id="Layer_1" xmlns="http://www.w3.org/2000/svg" xmlns:xlink="http://www.w3.org/1999/xlink" x="0px" y="0px"
	 viewBox="0 0 300 82" style="enable-background:new 0 0 300 82;" xml:space="preserve">
<style type="text/css">
	.st0{opacity:0.4;fill:url(#SVGID_1_);enable-background:new    ;}
	.st1{opacity:0.7;fill:url(#SVGID_2_);enable-background:new    ;}
	.st2{fill:url(#SVGID_3_);enable-background:new    ;}
</style>
<g transform="">
	
		<linearGradient id="SVGID_1_" gradientUnits="userSpaceOnUse" x1="-806.3033" y1="574.1014" x2="-805.3033" y2="574.1014" gradientTransform="matrix(305.8311 7.9128 1.7713 -68.4606 245575.7656 45722.5352)">
		<stop  offset="0" style="stop-color:#EE7DC8"/>
		<stop  offset="1" style="stop-color:#6A46F4"/>
	</linearGradient>
	<path class="st0" d="M306.9,8.9L1,1l-1.8,70.1c50.6,16.7,140.4,0.1,140.4,0.1s115.2-19.8,165.5,6.3L306.9,8.9z"/>
	
		<linearGradient id="SVGID_2_" gradientUnits="userSpaceOnUse" x1="-806.3033" y1="574.1764" x2="-805.3033" y2="574.1764" gradientTransform="matrix(300 0 0 -68.4835 241891 39359.418)">
		<stop  offset="0" style="stop-color:#EE7DC8"/>
		<stop  offset="1" style="stop-color:#6A46F4"/>
	</linearGradient>
	<path class="st1" d="M300,1.6H0v66.6c50,14.6,137.6-3.3,137.6-3.3S250,43.2,300,66.8V1.6z"/>
	
		<linearGradient id="SVGID_3_" gradientUnits="userSpaceOnUse" x1="-806.3033" y1="574.2295" x2="-805.3033" y2="574.2295" gradientTransform="matrix(300 0 0 -68.4835 241891 39359.418)">
		<stop  offset="0" style="stop-color:#EE7DC8"/>
		<stop  offset="1" style="stop-color:#6A46F4"/>
	</linearGradient>
	<path class="st2" d="M300-2H0v66.6c50,14.6,137.6-3.3,137.6-3.3S250,39.6,300,63.2V-2z"/>
</g>
</svg>
