<svg xmlns="http://www.w3.org/2000/svg" xmlns:xlink="http://www.w3.org/1999/xlink" version="1.1" x="0px" y="0px" viewBox="0 0 500 625" enable-background="new 0 0 500 500" xml:space="preserve"><g><g><g><path fill="#fff" d="M327.4,213c0,3.3-0.1,6.5-0.4,9.8c-0.1,1.6-0.3,3.2-0.4,4.8c0,0.4-0.4,3.3-0.2,1.4     c0.2-1.7-0.2,1.1-0.2,1.4c-1,6.4-2.6,12.8-4.6,19c-0.9,3-2,5.9-3.2,8.7c-1,2.7-0.3,0.6,0,0.1c-0.3,0.6-0.5,1.2-0.8,1.8     c-0.7,1.6-1.5,3.2-2.3,4.8c-2.9,5.7-6.1,11.1-9.8,16.3c-1,1.4-2,2.8-3.1,4.2c1.5-2-0.3,0.3-0.9,1c-2.2,2.7-4.5,5.3-7,7.8     c-2.1,2.2-4.3,4.3-6.6,6.3c-1,0.9-2,1.7-2.9,2.6c-0.7,0.6-1.3,1.1-2,1.7c-2.1,1.8,0.8-0.6-0.6,0.5c-5.1,3.8-10.4,7.3-15.9,10.3     c-2.7,1.5-5.4,2.9-8.2,4.2c-0.6,0.3-1.2,0.5-1.8,0.8c-2.1,1,2.1-0.8-0.1,0c-1.6,0.7-3.3,1.3-5,1.9c-6.1,2.2-12.4,4-18.7,5.2     c-1.6,0.3-3.1,0.6-4.7,0.8c-0.7,0.1-1.3,0.2-2,0.3c2.9-0.4,0.5-0.1-0.1,0c-3.4,0.4-6.9,0.7-10.3,0.8c-6.7,0.2-13.4-0.1-20.1-0.8     c-0.6-0.1-2.9-0.4-0.1,0c-0.7-0.1-1.3-0.2-2-0.3c-1.6-0.3-3.1-0.5-4.7-0.8c-3.3-0.7-6.6-1.5-9.8-2.4c-3-0.8-6-1.8-8.9-2.9     c-1.5-0.5-2.9-1.1-4.3-1.7c-0.5-0.2-2.6-1.2-0.1,0c-0.8-0.4-1.6-0.7-2.4-1.1c-5.8-2.7-11.3-5.7-16.6-9.2c-2.6-1.7-5-3.4-7.5-5.3     c-1.8-1.4,1.7,1.4-0.1-0.1c-0.5-0.4-1-0.8-1.5-1.2c-1.3-1.1-2.7-2.2-3.9-3.4c-4.7-4.2-9.1-8.7-13.1-13.6c-0.6-0.7-3-3.7-1.3-1.5     c-0.9-1.2-1.8-2.4-2.7-3.7c-1.9-2.7-3.7-5.4-5.4-8.2c-1.6-2.6-3.1-5.3-4.5-8c-0.7-1.4-1.4-2.7-2-4.1c-0.4-0.8-0.7-1.6-1.1-2.4     c-1-2.2,1.2,3.3-0.3-0.7c-2.3-5.8-4.2-11.7-5.7-17.8c-0.7-3.1-1.4-6.2-1.9-9.3c-0.2-0.9-0.3-1.8-0.4-2.7c0.1,0.6,0.3,2.9,0-0.1     c-0.2-1.8-0.4-3.7-0.5-5.5c-0.5-6.7-0.5-13.5,0.1-20.2c0.1-1.6,0.3-3.2,0.5-4.8c0-0.2,0.3-2.5,0.1-0.7c-0.3,1.9,0.2-1,0.2-1.4     c0.5-3.3,1.2-6.7,2-9.9c1.5-6.3,3.5-12.4,6-18.4c0.7-1.6-0.1,0.3-0.2,0.5c0.4-0.8,0.7-1.6,1.1-2.4c0.6-1.4,1.3-2.8,2-4.2     c1.5-2.9,3.1-5.8,4.8-8.6c1.6-2.6,3.2-5.2,5-7.7c0.9-1.2,1.8-2.5,2.7-3.7c1-1.4-0.2,0.3-0.3,0.5c0.7-0.8,1.4-1.7,2.1-2.5     c4-4.8,8.4-9.4,13.1-13.6c1.1-1,2.3-2,3.4-3c0.7-0.6,3.8-3.1,1.5-1.3c2.6-2,5.3-3.9,8-5.7c5.3-3.5,10.9-6.6,16.6-9.2     c0.8-0.4,1.6-0.7,2.4-1.1c-0.2,0.1-2.1,0.9-0.5,0.2c1.4-0.6,2.9-1.1,4.3-1.7c3.1-1.1,6.3-2.2,9.5-3.1c3-0.9,6.1-1.6,9.2-2.2     c1.6-0.3,3.1-0.6,4.7-0.9c0.9-0.2,1.8-0.3,2.7-0.4c-1.5,0.2-1.3,0.2,0.1,0c6.9-0.7,13.9-1,20.8-0.8c3,0.1,6,0.4,9,0.7     c0.4,0,3.3,0.4,1.4,0.2c-1.7-0.2,0.5,0.1,0.7,0.1c1.8,0.3,3.6,0.6,5.3,1c6.6,1.3,13,3.1,19.3,5.5c1.2,0.5,2.5,0.9,3.7,1.4     c2.7,1,0.6,0.3,0.1,0c0.8,0.4,1.6,0.7,2.4,1.1c3,1.4,5.9,2.9,8.8,4.5c5.5,3.1,10.9,6.5,15.9,10.4c-2.2-1.7,0.9,0.8,1.5,1.3     c1.2,1,2.3,2,3.4,3c2.4,2.2,4.8,4.4,7,6.8c2.1,2.2,4.1,4.5,6.1,6.8c0.5,0.6,3.1,3.9,1.3,1.5c1.1,1.4,2.1,2.8,3.1,4.2     c3.6,5.2,6.9,10.6,9.8,16.3c0.7,1.4,1.4,2.8,2,4.2c0.3,0.6,0.5,1.2,0.8,1.8c1,2.1-0.8-2.1,0,0.1c1.2,3.1,2.4,6.2,3.4,9.4     c2,6.2,3.5,12.5,4.6,19c0.1,0.7,0.2,1.3,0.3,2c-0.4-2.9-0.1-0.5,0,0.1c0.2,1.6,0.3,3.2,0.5,4.8C327.3,206,327.4,209.5,327.4,213     c0,7.8,6.9,15.4,15,15c8.1-0.4,15-6.6,15-15c-0.3-61.7-39.4-116.8-97.2-138c-56.5-20.8-123.5-2.5-161.7,44     c-19.5,23.8-31.1,52.2-33.7,82.8c-2.5,29.9,4.9,60.9,20.4,86.6c32.1,53.1,95,80.1,155.6,68c58-11.6,105.5-60.9,114.5-119.4     c1.2-8,2-15.9,2-24c0-7.8-6.9-15.4-15-15C334.3,198.4,327.5,204.6,327.4,213z"/></g></g><g><g><path fill="#fff" d="M295.7,315c33.3,33.3,66.7,66.7,100,100c4.7,4.7,9.3,9.3,14,14c5.7,5.7,15.5,5.7,21.2,0     c5.7-5.7,5.7-15.5,0-21.2c-33.3-33.3-66.7-66.7-100-100c-4.7-4.7-9.3-9.3-14-14c-5.7-5.7-15.5-5.7-21.2,0     C289.9,299.5,289.9,309.2,295.7,315L295.7,315z"/></g></g></g></svg>
