<?xml version="1.0" encoding="iso-8859-1"?>
<!-- Generator: Adobe Illustrator 19.0.0, SVG Export Plug-In . SVG Version: 6.00 Build 0)  -->
<svg version="1.1" id="Capa_1" xmlns="http://www.w3.org/2000/svg" xmlns:xlink="http://www.w3.org/1999/xlink" x="0px" y="0px"
	 viewBox="0 0 512.011 512.011" style="enable-background:new 0 0 512.011 512.011;" xml:space="preserve">
<g>
	<g>
		<path d="M503.942,82.118l-112-64c-2.4-1.376-5.152-2.112-7.936-2.112h-256c-2.784,0-5.504,0.736-7.936,2.112l-112,64
			c-6.4,3.648-9.472,11.2-7.456,18.272l32,112c2.368,8.32,11.008,13.216,19.264,11.136l44.128-11.008v267.488
			c0,8.832,7.168,16,16,16h288c8.832,0,16-7.168,16-16V212.518l44.128,11.008c8.256,2.112,16.864-2.816,19.264-11.136l32-112
			C513.414,93.318,510.342,85.766,503.942,82.118z M256.006,112.006c-35.36,0-64-28.64-64-64h128
			C320.006,83.366,291.366,112.006,256.006,112.006z"/>
	</g>
</g>
<g>
</g>
<g>
</g>
<g>
</g>
<g>
</g>
<g>
</g>
<g>
</g>
<g>
</g>
<g>
</g>
<g>
</g>
<g>
</g>
<g>
</g>
<g>
</g>
<g>
</g>
<g>
</g>
<g>
</g>
</svg>
